<?xml version="1.0" encoding="utf-8"?>
<!-- Generator: Adobe Illustrator 19.2.0, SVG Export Plug-In . SVG Version: 6.00 Build 0)  -->
<svg version="1.1" id="Capa_1" xmlns="http://www.w3.org/2000/svg" xmlns:xlink="http://www.w3.org/1999/xlink" x="0px" y="0px"
	 viewBox="0 0 213.1 47.2" style="enable-background:new 0 0 213.1 47.2;" xml:space="preserve">
<style type="text/css">
	.st0{fill:#EEEEEE;}
	.st1{fill:#B9D6EA;}
	.st2{enable-background:new    ;}
</style>
<g id="Capa_1_1_">
	<g>
		<path class="st0" d="M11.2,43.8c0-1,0-1.9,0-2.9c0-0.8,0.2-1.4,0.8-2c0.4-0.4,0.9-0.7,1.6-0.7c0.3,0,0.5,0,0.8,0
			c1.7,0,3.3,0,5-0.1c2-0.1,3.9-0.2,5.9-0.6c1.4-0.3,2.8-0.7,4-1.4c1.6-0.9,2.9-2.1,3.7-3.8c0.8-1.4,1.2-3,1.4-4.5
			c0.3-1.8,0.4-3.6,0.3-5.4c-0.1-1.9-0.3-3.8-1-5.7c-0.8-2.2-2.3-4-4.3-5.2c-1.5-0.9-3.1-1.4-4.7-1.7c-1.4-0.3-2.9-0.5-4.3-0.6
			C18.7,9.1,17.3,9,15.8,9c-0.7,0-1.4,0-2.1,0c-1.2,0-2.1-0.8-2.4-1.9c-0.1-0.3-0.1-0.6-0.1-0.9c0-2,0-4,0-6c0-0.2,0-0.2,0.2-0.2
			c1.6,0,3.2,0,4.8,0c1.8,0,3.6,0.1,5.3,0.2c2.3,0.2,4.5,0.5,6.7,1C31,1.9,33.7,3,36.1,4.7c3.3,2.4,5.4,5.6,6.6,9.5
			c0.5,1.7,0.8,3.4,1,5.2c0.1,1.5,0.2,3,0.2,4.5c0,2.1-0.2,4.3-0.6,6.4c-0.4,2.2-1.1,4.4-2.1,6.4c-1.4,2.7-3.3,4.9-5.9,6.5
			c-1.8,1.1-3.7,1.9-5.7,2.4c-1.6,0.4-3.3,0.7-5,0.9C23,47,21.4,47,19.8,47.1c-2.8,0.1-5.6,0.1-8.5,0.1c-0.2,0-0.2-0.1-0.2-0.2
			C11.2,45.9,11.2,44.8,11.2,43.8"/>
		<path class="st1" d="M0,23.6C0,16.8,0,9.9,0,3.1c0-1,0.4-1.8,1.2-2.5C1.7,0.2,2.3,0,2.9,0c2.2,0,4.5,0,6.7,0
			c0.2,0,0.2,0.1,0.2,0.3c0,6.1,0,12.3,0,18.4c0,0.3,0,0.3,0.3,0.3c4.5,0,9.1,0,13.6,0c2,0,3.7,1.4,4,3.3c0.2,1,0.2,2.1-0.1,3.1
			c-0.6,1.7-2.1,2.8-3.9,2.8c-4.5,0-9.1,0-13.6,0c-0.3,0-0.3,0-0.3,0.3c0,6.1,0,12.3,0,18.4c0,0.2,0,0.3-0.3,0.3c-2.2,0-4.4,0-6.6,0
			c-0.7,0-1.3-0.2-1.8-0.6C0.4,46,0,45.2,0,44.2c0-4.3,0-8.5,0-12.8V23.6z"/>
	</g>
	<g class="st2">
		<path class="st0" d="M48.5,30.1V16.2h9.4v2.6h-6.2v2.7h5.5v2.6h-5.5v3.3h6.7V30L48.5,30.1L48.5,30.1z"/>
		<path class="st0" d="M63.5,27.9c0.5,0,0.9-0.1,1.2-0.2c0.2-0.1,0.3-0.3,0.3-0.6c0-0.2-0.1-0.5-0.4-0.6c-0.3-0.2-0.7-0.4-1.3-0.6
			c-0.5-0.2-0.9-0.4-1.3-0.5c-0.4-0.2-0.7-0.4-1-0.7s-0.5-0.6-0.6-0.9c-0.1-0.4-0.2-0.8-0.2-1.3c0-1,0.4-1.8,1.1-2.3
			c0.7-0.6,1.7-0.9,3-0.9c0.6,0,1.3,0.1,1.8,0.2c0.6,0.1,1.1,0.2,1.4,0.4L67,22.2c-0.3-0.1-0.7-0.2-1.1-0.3
			c-0.4-0.1-0.9-0.1-1.4-0.1c-0.9,0-1.4,0.3-1.4,0.8c0,0.1,0,0.2,0.1,0.3c0,0.1,0.1,0.2,0.2,0.3c0.1,0.1,0.3,0.2,0.5,0.3
			c0.2,0.1,0.5,0.2,0.8,0.3c0.7,0.2,1.2,0.5,1.6,0.7s0.8,0.5,1,0.8s0.4,0.6,0.5,0.9s0.1,0.7,0.1,1.2c0,1-0.4,1.8-1.2,2.4
			c-0.8,0.5-1.9,0.8-3.3,0.8c-0.9,0-1.7-0.1-2.3-0.2c-0.6-0.2-1-0.3-1.3-0.4l0.5-2.4c0.5,0.2,1,0.4,1.6,0.5S62.9,27.9,63.5,27.9z"/>
		<path class="st0" d="M69.6,24.8c0-0.8,0.1-1.5,0.4-2.2c0.2-0.7,0.6-1.3,1.1-1.8s1-0.9,1.7-1.2c0.7-0.3,1.4-0.4,2.3-0.4
			c0.6,0,1.1,0,1.5,0.1c0.5,0.1,0.9,0.2,1.4,0.4l-0.6,2.4c-0.3-0.1-0.6-0.2-0.9-0.3c-0.3-0.1-0.7-0.1-1.1-0.1c-0.9,0-1.5,0.3-2,0.8
			s-0.6,1.3-0.6,2.2c0,0.9,0.2,1.7,0.6,2.2s1.1,0.8,2.1,0.8c0.4,0,0.7,0,1.2-0.1s0.8-0.2,1.1-0.3l0.4,2.4c-0.3,0.1-0.8,0.3-1.3,0.4
			s-1.1,0.2-1.7,0.2c-1,0-1.8-0.1-2.5-0.4s-1.3-0.7-1.7-1.2c-0.4-0.5-0.8-1.1-1-1.8C69.7,26.3,69.6,25.6,69.6,24.8z"/>
		<path class="st0" d="M89.1,29.7c-0.5,0.1-1.2,0.3-2,0.4s-1.6,0.2-2.5,0.2s-1.6-0.1-2.2-0.4s-1.1-0.6-1.4-1s-0.6-1-0.7-1.5
			c-0.1-0.6-0.2-1.3-0.2-2v-5.9h3V25c0,1,0.1,1.7,0.4,2.1s0.7,0.6,1.4,0.6c0.2,0,0.4,0,0.7,0c0.2,0,0.5,0,0.6-0.1v-8.1h3v10.2H89.1z
			"/>
		<path class="st0" d="M91.4,24.9c0-0.9,0.1-1.8,0.4-2.5s0.7-1.3,1.1-1.8s1-0.8,1.6-1.1c0.6-0.2,1.2-0.4,1.9-0.4
			c1.5,0,2.7,0.5,3.5,1.4s1.3,2.3,1.3,4c0,0.2,0,0.4,0,0.6s0,0.4,0,0.5h-6.8c0.1,0.6,0.4,1.1,0.9,1.5s1.2,0.5,2,0.5
			c0.5,0,1.1,0,1.6-0.1s1-0.2,1.3-0.4l0.4,2.4c-0.2,0.1-0.4,0.2-0.6,0.2c-0.3,0.1-0.6,0.1-0.9,0.2s-0.7,0.1-1,0.1
			c-0.4,0-0.7,0.1-1.1,0.1c-0.9,0-1.8-0.1-2.5-0.4s-1.3-0.7-1.7-1.2c-0.5-0.5-0.8-1.1-1-1.7C91.5,26.4,91.4,25.7,91.4,24.9z
			 M98.4,23.8c0-0.3-0.1-0.5-0.1-0.7c-0.1-0.2-0.2-0.5-0.3-0.6c-0.2-0.2-0.3-0.3-0.6-0.5c-0.2-0.1-0.5-0.2-0.9-0.2
			c-0.3,0-0.6,0.1-0.9,0.2c-0.2,0.1-0.4,0.3-0.6,0.5s-0.3,0.4-0.4,0.6s-0.1,0.5-0.2,0.8L98.4,23.8L98.4,23.8z"/>
		<path class="st0" d="M107.8,30.3c-0.9,0-1.6-0.1-2.1-0.3c-0.5-0.2-1-0.4-1.3-0.7c-0.3-0.3-0.5-0.7-0.6-1.1s-0.2-1-0.2-1.5V15
			l3-0.5V26c0,0.3,0,0.5,0.1,0.7s0.1,0.4,0.2,0.5s0.3,0.3,0.5,0.4s0.5,0.2,0.9,0.2L107.8,30.3z"/>
		<path class="st0" d="M114,19.3c0.9,0,1.6,0.1,2.2,0.3c0.6,0.2,1.1,0.5,1.4,0.9s0.6,0.8,0.8,1.4c0.1,0.5,0.2,1.1,0.2,1.8v6.2
			c-0.4,0.1-1,0.2-1.8,0.3c-0.8,0.1-1.7,0.2-2.8,0.2c-0.7,0-1.3-0.1-1.9-0.2s-1-0.3-1.4-0.6s-0.7-0.6-0.9-1.1
			c-0.2-0.4-0.3-1-0.3-1.6s0.1-1.1,0.4-1.6s0.6-0.8,1-1c0.4-0.3,0.9-0.4,1.4-0.5s1.1-0.2,1.7-0.2c0.4,0,0.7,0,1,0s0.5,0.1,0.7,0.1
			v-0.3c0-0.5-0.2-0.9-0.5-1.2c-0.3-0.3-0.8-0.5-1.6-0.5c-0.5,0-1,0-1.5,0.1s-0.9,0.2-1.3,0.3l-0.4-2.4c0.2-0.1,0.4-0.1,0.7-0.2
			c0.3-0.1,0.5-0.1,0.8-0.2s0.6-0.1,1-0.1C113.3,19.3,113.7,19.3,114,19.3z M114.2,28c0.3,0,0.6,0,0.8,0c0.3,0,0.5,0,0.6-0.1v-2.3
			c-0.1,0-0.3-0.1-0.5-0.1s-0.5,0-0.7,0c-0.3,0-0.5,0-0.8,0c-0.2,0-0.5,0.1-0.7,0.2s-0.3,0.2-0.4,0.4s-0.2,0.4-0.2,0.6
			c0,0.5,0.2,0.8,0.5,1C113.3,27.9,113.7,28,114.2,28z"/>
	</g>
	<g class="st2">
		<path class="st1" d="M133.4,23.1c0,1.2-0.2,2.2-0.6,3.1s-0.9,1.6-1.6,2.2s-1.5,1-2.5,1.3s-2.1,0.4-3.3,0.4c-0.6,0-1.2,0-2-0.1
			c-0.7,0-1.5-0.1-2.2-0.3V16.4c0.7-0.1,1.5-0.2,2.3-0.3c0.8,0,1.5-0.1,2-0.1c1.2,0,2.3,0.1,3.2,0.4s1.8,0.7,2.5,1.3
			c0.7,0.6,1.2,1.3,1.6,2.2C133.2,20.8,133.4,21.9,133.4,23.1z M124.3,27.5c0.1,0,0.3,0,0.5,0s0.4,0,0.7,0c1.6,0,2.7-0.4,3.5-1.2
			c0.8-0.8,1.1-1.9,1.1-3.3c0-1.5-0.4-2.6-1.1-3.3c-0.7-0.7-1.9-1.1-3.4-1.1c-0.2,0-0.4,0-0.7,0s-0.4,0-0.6,0V27.5z"/>
		<path class="st1" d="M139,16.5c0,0.5-0.2,1-0.5,1.3c-0.4,0.3-0.8,0.5-1.3,0.5s-0.9-0.2-1.3-0.5c-0.4-0.3-0.5-0.7-0.5-1.3
			s0.2-1,0.5-1.3c0.4-0.3,0.8-0.5,1.3-0.5s0.9,0.2,1.3,0.5C138.8,15.5,139,16,139,16.5z M138.7,30.1h-3V19.6h3V30.1z"/>
		<path class="st1" d="M150.6,28.8c0,1.7-0.4,3-1.3,3.8c-0.9,0.8-2.2,1.3-4,1.3c-0.6,0-1.3-0.1-1.9-0.2c-0.6-0.1-1.2-0.3-1.8-0.5
			l0.5-2.5c0.5,0.2,1,0.3,1.5,0.4s1.1,0.2,1.8,0.2c0.9,0,1.5-0.2,1.8-0.6s0.5-0.9,0.5-1.4v-0.4c-0.3,0.1-0.7,0.3-1,0.3
			s-0.7,0.1-1.1,0.1c-1.5,0-2.6-0.4-3.3-1.3c-0.8-0.9-1.2-2.1-1.2-3.6c0-0.8,0.1-1.5,0.4-2.1c0.2-0.6,0.6-1.2,1-1.6s1-0.8,1.7-1
			s1.4-0.4,2.3-0.4c0.4,0,0.7,0,1.1,0s0.8,0.1,1.1,0.1c0.4,0.1,0.7,0.1,1.1,0.2c0.3,0.1,0.6,0.1,0.9,0.2v9H150.6z M144.1,24.5
			c0,1.7,0.7,2.5,2,2.5c0.3,0,0.6,0,0.9-0.1s0.5-0.2,0.7-0.3v-4.8c-0.1,0-0.3,0-0.5-0.1c-0.2,0-0.4,0-0.7,0c-0.8,0-1.4,0.3-1.8,0.8
			C144.3,23,144.1,23.7,144.1,24.5z"/>
		<path class="st1" d="M156.7,16.5c0,0.5-0.2,1-0.5,1.3c-0.4,0.3-0.8,0.5-1.3,0.5s-0.9-0.2-1.3-0.5c-0.4-0.3-0.5-0.7-0.5-1.3
			s0.2-1,0.5-1.3c0.4-0.3,0.8-0.5,1.3-0.5s0.9,0.2,1.3,0.5C156.5,15.5,156.7,16,156.7,16.5z M156.4,30.1h-3V19.6h3V30.1z"/>
		<path class="st1" d="M159.1,16.9l3-0.5v3.1h3.6V22h-3.6v3.7c0,0.6,0.1,1.1,0.3,1.5s0.7,0.6,1.3,0.6c0.3,0,0.6,0,1-0.1
			c0.3-0.1,0.6-0.1,0.9-0.3l0.4,2.3c-0.4,0.1-0.8,0.3-1.2,0.4s-1,0.2-1.6,0.2c-0.8,0-1.5-0.1-2-0.3s-1-0.5-1.3-0.9s-0.5-0.9-0.7-1.4
			c-0.1-0.6-0.2-1.2-0.2-1.9v-8.9H159.1z"/>
		<path class="st1" d="M171.5,19.3c0.9,0,1.6,0.1,2.2,0.3s1.1,0.5,1.4,0.9c0.4,0.4,0.6,0.8,0.8,1.4c0.1,0.5,0.2,1.1,0.2,1.8v6.2
			c-0.4,0.1-1,0.2-1.8,0.3c-0.8,0.1-1.7,0.2-2.8,0.2c-0.7,0-1.3-0.1-1.8-0.2c-0.6-0.1-1-0.3-1.4-0.6c-0.4-0.3-0.7-0.6-0.9-1.1
			c-0.2-0.4-0.3-1-0.3-1.6s0.1-1.1,0.4-1.6c0.2-0.4,0.6-0.8,1-1c0.4-0.3,0.9-0.4,1.4-0.5s1.1-0.2,1.7-0.2c0.4,0,0.7,0,1,0
			s0.5,0.1,0.7,0.1v-0.3c0-0.5-0.2-0.9-0.5-1.2c-0.3-0.3-0.8-0.5-1.6-0.5c-0.5,0-1,0-1.5,0.1s-0.9,0.2-1.3,0.3l-0.4-2.4
			c0.2-0.1,0.4-0.1,0.7-0.2s0.5-0.1,0.8-0.2s0.6-0.1,1-0.1C170.8,19.3,171.1,19.3,171.5,19.3z M171.7,28c0.3,0,0.6,0,0.8,0
			c0.3,0,0.5,0,0.6-0.1v-2.3c-0.1,0-0.3-0.1-0.5-0.1s-0.5,0-0.7,0c-0.3,0-0.5,0-0.8,0c-0.2,0-0.5,0.1-0.7,0.2s-0.3,0.2-0.4,0.4
			c-0.1,0.2-0.2,0.4-0.2,0.6c0,0.5,0.2,0.8,0.5,1C170.7,27.9,171.2,28,171.7,28z"/>
		<path class="st1" d="M182.9,30.3c-0.9,0-1.6-0.1-2.1-0.3s-1-0.4-1.3-0.7s-0.5-0.7-0.6-1.1s-0.2-1-0.2-1.5V15l3-0.5V26
			c0,0.3,0,0.5,0.1,0.7s0.1,0.4,0.2,0.5s0.3,0.3,0.5,0.4s0.5,0.2,0.9,0.2L182.9,30.3z"/>
	</g>
	<g class="st2">
		<path class="st0" d="M188.3,28.5c0,0.6-0.2,1.1-0.6,1.4s-0.8,0.5-1.3,0.5s-0.9-0.2-1.3-0.5s-0.6-0.8-0.6-1.4s0.2-1.1,0.6-1.4
			c0.4-0.3,0.8-0.5,1.3-0.5s0.9,0.2,1.3,0.5C188.2,27.4,188.3,27.9,188.3,28.5z"/>
		<path class="st0" d="M200.1,24.8c0,0.8-0.1,1.6-0.3,2.2c-0.2,0.7-0.5,1.2-0.9,1.7s-0.9,0.9-1.4,1.1c-0.6,0.3-1.2,0.4-2,0.4
			c-0.4,0-0.8,0-1.2-0.1s-0.7-0.2-1-0.3v4h-3V19.9c0.3-0.1,0.6-0.2,0.9-0.2s0.7-0.1,1.1-0.2c0.4-0.1,0.8-0.1,1.2-0.1s0.8,0,1.1,0
			c0.9,0,1.6,0.1,2.3,0.4s1.3,0.6,1.7,1.1c0.5,0.5,0.8,1,1.1,1.7C200,23.2,200.1,24,200.1,24.8z M197.1,24.9c0-0.9-0.2-1.7-0.6-2.2
			c-0.4-0.6-1-0.8-1.8-0.8c-0.3,0-0.5,0-0.7,0s-0.4,0-0.6,0.1v5.4c0.2,0.1,0.4,0.2,0.7,0.3c0.3,0.1,0.6,0.1,0.9,0.1
			C196.4,27.8,197.1,26.8,197.1,24.9z"/>
		<path class="st0" d="M201.9,24.9c0-0.9,0.1-1.8,0.4-2.5c0.3-0.7,0.7-1.3,1.1-1.8s1-0.8,1.6-1.1c0.6-0.2,1.2-0.4,1.9-0.4
			c1.5,0,2.7,0.5,3.5,1.4c0.9,0.9,1.3,2.3,1.3,4c0,0.2,0,0.4,0,0.6s0,0.4,0,0.5H205c0.1,0.6,0.4,1.1,0.9,1.5s1.2,0.5,2,0.5
			c0.5,0,1.1,0,1.6-0.1s1-0.2,1.3-0.4l0.4,2.4c-0.2,0.1-0.4,0.2-0.6,0.2s-0.6,0.1-0.9,0.2c-0.3,0.1-0.7,0.1-1,0.1
			c-0.4,0-0.7,0.1-1.1,0.1c-0.9,0-1.8-0.1-2.5-0.4s-1.3-0.7-1.7-1.2c-0.5-0.5-0.8-1.1-1-1.7C202,26.4,201.9,25.7,201.9,24.9z
			 M208.9,23.8c0-0.3-0.1-0.5-0.1-0.7c-0.1-0.2-0.2-0.5-0.3-0.6c-0.2-0.2-0.3-0.3-0.6-0.5s-0.5-0.2-0.9-0.2c-0.3,0-0.6,0.1-0.9,0.2
			c-0.2,0.1-0.4,0.3-0.6,0.5s-0.3,0.4-0.4,0.6c-0.1,0.2-0.1,0.5-0.2,0.8L208.9,23.8L208.9,23.8z"/>
	</g>
</g>
<g id="fondo_claro">
</g>
</svg>
